# xmcd
#
# Track frame offsets:
#	150
#	14670
#	31265
#	40538
#	50608
#	65690
#	81053
#	90575
#
# Disc length: 1350 seconds
#
# Revision: 3
# Processed by: cddbd v1.5.2PL0 Copyright (c) Steve Scherf et al.
# Submitted via: dBpowerAMP V4.0
#
DISCID=5d054408
DTITLE=Various Artist - Country Gospel At Its Best - Vol. 1
DYEAR=1994
DGENRE=Gospel
TTITLE0=Red Sovine - From The Window Up Above
TTITLE1=George Morgan - When They Ring Those Golden Bells
TTITLE2=Carl Smith - I Found My Jesus ( And He Wasn't Even Lost )
TTITLE3=George Jones - Lily Of The Valley
TTITLE4=Claude Gray - Unclouded Day
TTITLE5=David Houston - Amazing Grace
TTITLE6=Kitty Wells - He's Got Whole World In His Hands
TTITLE7=Roy Wiggins (instrumental) - Will The Circle Be Unbroken
EXTD=
EXTT0=
EXTT1=
EXTT2=
EXTT3=
EXTT4=
EXTT5=
EXTT6=
EXTT7=
PLAYORDER=
